<svg width="150" height="68" viewBox="0 0 150 68" fill="none" xmlns="http://www.w3.org/2000/svg">
<g clip-path="url(#clip0_622_71)">
<path d="M105.672 23.0538L107.02 18.3201C106.224 18.8821 105.459 19.4846 104.73 20.1261L105.603 23.0538H105.672Z" fill="#FE330A"/>
<path d="M117.093 23.0538L119.947 13.4793C118.107 13.665 116.321 14.0332 114.607 14.5669L117.022 23.0538H117.093Z" fill="#FE330A"/>
<path d="M141.162 20.5365V25.6578H138.947V18.7037C135.961 16.4848 132.503 14.8694 128.755 14.0203C128.705 14.3601 128.661 14.7031 128.652 15.0648V25.6587H126.438V13.6002C125.22 13.4331 123.978 13.3398 122.713 13.3398C122.542 13.3398 122.373 13.3496 122.203 13.3528L118.251 25.6587H115.826L112.776 15.2181C111.622 15.6706 110.506 16.1969 109.435 16.7954L106.866 25.6587H104.441L103.147 21.6305C98.3719 26.5524 95.4272 33.2657 95.4272 40.6707C95.4272 55.7647 107.643 68.0008 122.712 68.0008C137.781 68.0008 149.997 55.7647 149.997 40.6707C149.997 32.7028 146.591 25.533 141.16 20.5373L141.162 20.5365Z" fill="#FE330A"/>
<path d="M97.1335 16.5773C97.1335 15.2635 96.9457 14.0259 96.5708 12.8646C96.1959 11.7033 95.6454 10.6879 94.9199 9.82018C94.1937 8.95243 93.2974 8.25985 92.2319 7.74325C91.1656 7.22747 89.9414 6.96877 88.5594 6.96877C87.1773 6.96877 85.9531 7.22747 84.8876 7.74325C83.8221 8.25985 82.9258 8.95243 82.1996 9.82018C81.4733 10.6887 80.922 11.7033 80.5479 12.8646C80.1738 14.0259 79.9868 15.2643 79.9868 16.5773C79.9868 17.8903 80.1738 19.1286 80.5479 20.2899C80.9228 21.4521 81.4733 22.4666 82.1996 23.3344C82.9258 24.2029 83.8221 24.889 84.8876 25.3935C85.9531 25.8979 87.1773 26.1501 88.5594 26.1501C89.9414 26.1501 91.1656 25.8979 92.2319 25.3935C93.2974 24.889 94.1937 24.2029 94.9199 23.3344C95.6454 22.4666 96.1959 21.4513 96.5708 20.2899C96.9457 19.1286 97.1335 17.8911 97.1335 16.5773ZM94.5159 19.4108C94.2463 20.3386 93.848 21.165 93.3217 21.8925C92.7946 22.6199 92.1323 23.2071 91.3364 23.6523C90.5397 24.0983 89.6143 24.3205 88.5602 24.3205C87.506 24.3205 86.5806 24.0983 85.7847 23.6523C84.988 23.2062 84.3265 22.6199 83.7994 21.8925C83.2724 21.165 82.874 20.3386 82.6052 19.4108C82.3356 18.4839 82.2012 17.5399 82.2012 16.5773C82.2012 15.6146 82.3356 14.6715 82.6052 13.7437C82.874 12.8168 83.2724 11.9896 83.7994 11.2621C84.3265 10.5347 84.988 9.94831 85.7847 9.50227C86.5806 9.05704 87.5068 8.83321 88.5602 8.83321C89.6135 8.83321 90.5397 9.05623 91.3364 9.50227C92.1323 9.94831 92.7946 10.5347 93.3217 11.2621C93.848 11.9896 94.2463 12.8168 94.5159 13.7437C94.7847 14.6707 94.9199 15.6146 94.9199 16.5773C94.9199 17.5399 94.7847 18.4839 94.5159 19.4108Z" fill="#FE330A"/>
<path d="M124.085 7.49672H121.73L119.947 13.4785C120.69 13.4039 121.445 13.3658 122.204 13.352L124.085 7.49672Z" fill="#FE330A"/>
<path d="M17.7056 14.518C17.1081 14.0136 16.4166 13.591 15.6321 13.2512C14.8467 12.9114 14.0096 12.6235 13.1198 12.3892L7.00611 10.8751C6.49037 10.7583 6.00458 10.6058 5.54794 10.4177C5.0913 10.2303 4.68729 9.9838 4.33509 9.67806C3.9837 9.37313 3.70761 9.00413 3.50925 8.56945C3.31008 8.13557 3.20968 7.62546 3.20968 7.03831C3.20968 6.10001 3.38618 5.31336 3.73676 4.67998C4.08815 4.0466 4.55046 3.53649 5.12531 3.14885C5.69853 2.76201 6.36649 2.47979 7.12756 2.3038C7.88782 2.12782 8.67966 2.04023 9.49902 2.04023C10.3896 2.04023 11.2389 2.1635 12.047 2.41004C12.855 2.65658 13.5691 3.0199 14.1901 3.50081C14.8103 3.98172 15.3147 4.58104 15.7017 5.29551C16.0879 6.01161 16.3041 6.85017 16.3519 7.81199H18.7403C18.7403 6.52172 18.4885 5.38959 17.9857 4.4156C17.4813 3.44242 16.8085 2.62657 15.9649 1.96968C15.1212 1.31359 14.1375 0.820517 13.0137 0.491259C11.8891 0.163622 10.7062 -0.00100708 9.4642 -0.00100708C7.70727 -0.00100708 6.26691 0.251208 5.14231 0.755639C4.01771 1.26088 3.13277 1.87642 2.48991 2.60387C1.84543 3.33132 1.40579 4.1058 1.1718 4.92652C0.937004 5.74804 0.821224 6.46333 0.821224 7.074C0.821224 8.05934 0.979105 8.89222 1.29487 9.57263C1.61144 10.253 2.02679 10.828 2.54253 11.2976C3.05747 11.7671 3.66065 12.1418 4.3529 12.424C5.04272 12.7055 5.75197 12.9406 6.47823 13.128L12.0648 14.5002C12.6502 14.6413 13.2477 14.8229 13.8565 15.0459C14.4654 15.269 15.0224 15.5561 15.5252 15.908C16.0296 16.26 16.4393 16.6947 16.7559 17.2105C17.0716 17.7271 17.2295 18.3369 17.2295 19.0408C17.2295 19.9556 17.0069 20.7366 16.5624 21.3813C16.1171 22.0269 15.5608 22.5548 14.8937 22.9652C14.2257 23.3755 13.506 23.6748 12.7327 23.8629C11.9595 24.0511 11.2446 24.1443 10.5888 24.1443C9.44153 24.1443 8.36308 24.0332 7.35588 23.8094C6.34868 23.5872 5.47588 23.2174 4.73829 22.7008C4.00071 22.185 3.421 21.4924 2.99836 20.6239C2.57735 19.7561 2.37817 18.6767 2.40165 17.3856H0.0140064C-0.0564329 18.9346 0.148408 20.2597 0.628528 21.3627C1.10784 22.4656 1.79361 23.3691 2.68422 24.073C3.57321 24.7769 4.65166 25.2992 5.91633 25.639C7.181 25.9788 8.55173 26.1491 10.0277 26.1491C11.5037 26.1491 12.7684 26.0137 13.8225 25.7444C14.8767 25.4752 15.7616 25.1232 16.4766 24.6885C17.1907 24.2555 17.7526 23.7681 18.163 23.2279C18.5727 22.6886 18.8893 22.1542 19.1111 21.6263C19.3338 21.0983 19.4747 20.6004 19.5338 20.1308C19.5921 19.6612 19.6212 19.2858 19.6212 19.0043C19.6212 17.972 19.4504 17.0921 19.1111 16.3646C18.7719 15.6372 18.3039 15.0216 17.7064 14.5164L17.7056 14.518Z" fill="#FE330A"/>
<path d="M35.4675 17.0355C35.4675 17.9503 35.3623 18.848 35.1518 19.7279C34.9405 20.6079 34.6125 21.388 34.1672 22.0684C33.7219 22.7489 33.16 23.2946 32.4807 23.705C31.8015 24.1162 30.9813 24.3205 30.0202 24.3205C28.2633 24.3205 27.0278 23.8988 26.3137 23.0538C25.5988 22.2095 25.2182 20.9655 25.1721 19.3233V7.49753H22.9585V19.2884C22.9585 20.3686 23.0751 21.3296 23.3091 22.1747C23.5439 23.0189 23.9123 23.735 24.4167 24.3213C24.9203 24.9085 25.5761 25.3594 26.3841 25.6765C27.1921 25.9928 28.1702 26.1517 29.3183 26.1517C30.6769 26.1517 31.9132 25.829 33.0248 25.1842C34.1373 24.5387 34.9866 23.6069 35.5728 22.3855H35.6432V25.6587H37.6811V7.49672H35.4667L35.4675 17.0355Z" fill="#FE330A"/>
<path d="M55.1452 8.85186C54.6294 8.25336 53.9445 7.79029 53.0895 7.46184C52.2345 7.13339 51.1747 6.96877 49.91 6.96877C48.6211 6.96877 47.4382 7.3037 46.3613 7.97195C45.2829 8.64101 44.534 9.5266 44.1121 10.6287H44.0425V7.4959H41.8281V25.657H44.0425V15.0632C44.0652 14.1711 44.2125 13.3447 44.4813 12.5816C44.7509 11.8192 45.1258 11.1624 45.6059 10.6101C46.0861 10.0594 46.6714 9.62473 47.3629 9.30764C48.0543 8.99135 48.8445 8.8324 49.7351 8.8324C50.6257 8.8324 51.369 8.97351 51.9657 9.25492C52.5632 9.53633 53.0377 9.92398 53.3891 10.4162C53.7405 10.9085 53.9866 11.4892 54.1275 12.1582C54.2675 12.8273 54.338 13.5491 54.338 14.3227V25.6554H56.5515V13.97C56.5515 12.8914 56.4463 11.9174 56.235 11.0488C56.0245 10.1811 55.6609 9.44712 55.1468 8.84943L55.1452 8.85186Z" fill="#FE330A"/>
<path d="M74.4695 10.9466H74.3998C74.165 10.2897 73.8315 9.71476 73.3983 9.22168C72.9651 8.7286 72.4672 8.31257 71.9045 7.97277C71.3434 7.63297 70.7386 7.37994 70.0958 7.21612C69.4513 7.0523 68.7898 6.96958 68.1105 6.96958C66.7284 6.96958 65.5285 7.22828 64.5084 7.74407C63.489 8.26066 62.6405 8.95892 61.9612 9.83802C61.2819 10.7179 60.7783 11.739 60.4504 12.9003C60.1217 14.0616 59.959 15.2878 59.959 16.5781C59.959 17.8684 60.1217 19.0946 60.4504 20.2559C60.7783 21.4172 61.2819 22.4382 61.9612 23.3182C62.6397 24.1981 63.489 24.8907 64.5084 25.3951C65.5285 25.8995 66.7284 26.1517 68.1105 26.1517C68.7663 26.1517 69.4278 26.0577 70.0958 25.8703C70.7629 25.6822 71.3896 25.4194 71.9758 25.078C72.5611 24.7382 73.0826 24.3213 73.54 23.8291C73.9966 23.3368 74.3415 22.7967 74.5763 22.2104H74.6468V25.6595H76.6847V0.527954H74.4703L74.4695 10.9466ZM74.1359 19.376C73.9132 20.3029 73.5505 21.1301 73.0461 21.8568C72.5425 22.5842 71.8867 23.1771 71.0787 23.6344C70.2706 24.0918 69.2813 24.3205 68.1097 24.3205C67.0555 24.3205 66.1536 24.0918 65.4047 23.6344C64.6541 23.1762 64.0396 22.5842 63.5595 21.8568C63.0794 21.1293 62.728 20.3029 62.5053 19.376C62.2827 18.449 62.1718 17.5164 62.1718 16.5773C62.1718 15.6382 62.2827 14.7063 62.5053 13.7794C62.728 12.8524 63.0794 12.0252 63.5595 11.2978C64.0396 10.5703 64.6549 9.97751 65.4047 9.52012C66.1536 9.06191 67.0555 8.83403 68.1097 8.83403C69.2813 8.83403 70.2706 9.06273 71.0787 9.52012C71.8867 9.97751 72.5425 10.5703 73.0461 11.2978C73.5505 12.0252 73.9124 12.8524 74.1359 13.7794C74.3577 14.7063 74.4695 15.639 74.4695 16.5773C74.4695 17.5156 74.3577 18.4482 74.1359 19.376Z" fill="#FE330A"/>
<path d="M104.73 20.1253L100.965 7.49672H98.6104L103.149 21.6297C103.656 21.1074 104.183 20.6062 104.73 20.1253Z" fill="#FE330A"/>
<path d="M129.092 12.5824C129.36 11.8201 129.736 11.1632 130.216 10.6109C130.696 10.0602 131.282 9.62555 131.973 9.30845C132.663 8.99217 133.455 8.83322 134.345 8.83322C135.234 8.83322 135.979 8.97433 136.576 9.25574C137.174 9.53715 137.647 9.9248 137.999 10.4171C138.352 10.9093 138.597 11.49 138.737 12.1591C138.878 12.8281 138.948 13.5499 138.948 14.3236V18.7021C139.718 19.2746 140.457 19.8861 141.162 20.5349V13.9708C141.162 12.8922 141.056 11.9182 140.845 11.0496C140.635 10.1819 140.27 9.44794 139.756 8.85025C139.24 8.25174 138.555 7.78867 137.701 7.46023C136.845 7.13178 135.786 6.96715 134.52 6.96715C133.231 6.96715 132.048 7.30208 130.971 7.97033C129.892 8.63939 129.144 9.52498 128.722 10.6271H128.652V7.49429H126.438V13.5969C127.222 13.704 127.994 13.8451 128.755 14.0178C128.828 13.5183 128.931 13.0341 129.091 12.5808L129.092 12.5824Z" fill="#FE330A"/>
<path d="M111.295 10.383H111.364L112.776 15.2173C113.377 14.9821 113.985 14.7599 114.606 14.566L112.594 7.49672H110.099L107.018 18.3201C107.795 17.771 108.601 17.2609 109.436 16.7946L111.295 10.383Z" fill="#FE330A"/>
<path d="M117.093 23.0538L119.947 13.4793C118.107 13.665 116.321 14.0332 114.607 14.5669L117.022 23.0538H117.093Z" fill="#FE330A"/>
<path d="M105.672 23.0538L107.02 18.3201C106.224 18.8821 105.459 19.4846 104.73 20.1261L105.603 23.0538H105.672Z" fill="#FE330A"/>
<path d="M141.162 20.5365V25.6578H138.947V18.7037C135.961 16.4848 132.503 14.8694 128.755 14.0203C128.705 14.3601 128.661 14.7031 128.652 15.0648V25.6587H126.438V13.6002C125.22 13.4331 123.978 13.3398 122.713 13.3398C122.542 13.3398 122.373 13.3496 122.203 13.3528L118.251 25.6587H115.826L112.776 15.2181C111.622 15.6706 110.506 16.1969 109.435 16.7954L106.866 25.6587H104.441L103.147 21.6305C98.3719 26.5524 95.4272 33.2657 95.4272 40.6707C95.4272 55.7647 107.643 68.0008 122.712 68.0008C137.781 68.0008 149.997 55.7647 149.997 40.6707C149.997 32.7028 146.591 25.533 141.16 20.5373L141.162 20.5365Z" fill="#FE330A"/>
<path d="M6.64073 51.7942C6.94515 52.3805 7.34917 52.8557 7.85358 53.2199C8.35718 53.584 8.94903 53.8532 9.62832 54.0292C10.3068 54.2052 11.0104 54.2928 11.7366 54.2928C12.2281 54.2928 12.756 54.2514 13.3171 54.1695C13.8798 54.0876 14.4069 53.9287 14.8983 53.6943C15.3898 53.4607 15.8003 53.138 16.129 52.7268C16.4561 52.3164 16.6204 51.7942 16.6204 51.16C16.6204 50.4804 16.4034 49.9281 15.9703 49.5064C15.5363 49.083 14.9688 48.7319 14.266 48.4505C13.5632 48.1691 12.7665 47.9225 11.8767 47.7109C10.9861 47.5 10.085 47.2656 9.17168 47.0069C8.23411 46.7734 7.32083 46.4855 6.43022 46.1449C5.53961 45.8051 4.74372 45.3647 4.04095 44.8254C3.33818 44.2861 2.77061 43.6105 2.33664 42.8012C1.90267 41.9918 1.6865 41.0122 1.6865 39.8622C1.6865 38.5711 1.96178 37.4511 2.51315 36.5007C3.0629 35.551 3.78348 34.7595 4.67409 34.1253C5.5647 33.4911 6.57191 33.0224 7.69569 32.7174C8.82029 32.4125 9.94489 32.26 11.0687 32.26C12.3803 32.26 13.6393 32.4068 14.8465 32.7004C16.0529 32.9948 17.1248 33.4692 18.0616 34.1261C18.9984 34.783 19.7424 35.6224 20.293 36.6426C20.8427 37.6636 21.1188 38.9004 21.1188 40.3553H15.7784C15.7306 39.6051 15.5736 38.9823 15.3039 38.49C15.0343 37.9977 14.6765 37.6101 14.2328 37.3287C13.7875 37.0473 13.2774 36.8478 12.7042 36.7302C12.1309 36.6126 11.5043 36.5542 10.8242 36.5542C10.3789 36.5542 9.93356 36.6012 9.48906 36.6945C9.04376 36.7894 8.63974 36.9532 8.27621 37.1868C7.91268 37.4219 7.61473 37.7147 7.37993 38.0667C7.14513 38.4178 7.02936 38.8647 7.02936 39.404C7.02936 39.8962 7.12247 40.2961 7.3103 40.6002C7.49733 40.9059 7.86572 41.1873 8.41709 41.4452C8.96684 41.7031 9.72872 41.9618 10.7011 42.2197C11.6735 42.4776 12.9438 42.806 14.5137 43.2051C14.9817 43.2983 15.6319 43.4686 16.4642 43.7152C17.2957 43.9617 18.1207 44.355 18.9417 44.8943C19.761 45.4344 20.4695 46.1562 21.067 47.0588C21.6645 47.9631 21.9633 49.1179 21.9633 50.5266C21.9633 51.6758 21.7406 52.7438 21.2961 53.7292C20.85 54.7145 20.1885 55.5652 19.3109 56.2813C18.4324 56.9974 17.3426 57.5537 16.0423 57.9528C14.742 58.3509 13.2369 58.5513 11.5269 58.5513C10.1449 58.5513 8.80329 58.3801 7.50381 58.0403C6.20433 57.7005 5.05625 57.1669 4.06119 56.4395C3.06533 55.712 2.2743 54.7851 1.68893 53.6586C1.10355 52.533 0.822605 51.1957 0.846085 49.6467H6.18651C6.18651 50.4917 6.33873 51.2078 6.64315 51.7942H6.64073Z" fill="#EFEAE3"/>
<path d="M34.681 39.7916V43.1353H31.0263V52.1453C31.0263 52.9904 31.1671 53.5532 31.4489 53.8354C31.729 54.1168 32.2917 54.2571 33.1354 54.2571C33.4163 54.2571 33.6851 54.2458 33.9434 54.2214C34.2009 54.1987 34.447 54.163 34.681 54.116V57.9876C34.26 58.0574 33.7904 58.1044 33.2755 58.1279C32.7605 58.1506 32.2561 58.1636 31.7647 58.1636C30.9915 58.1636 30.2595 58.1109 29.5689 58.0055C28.8775 57.9 28.2686 57.6949 27.7415 57.3899C27.2145 57.085 26.7991 56.6511 26.4947 56.0875C26.1894 55.5239 26.0372 54.7851 26.0372 53.8703V43.1353H23.0156V39.7916H26.0372V34.3362H31.0271V39.7916H34.681Z" fill="#EFEAE3"/>
<path d="M49.368 57.9884V55.4541H49.262C48.6296 56.5092 47.8095 57.2723 46.8031 57.7419C45.7959 58.2106 44.7652 58.4458 43.711 58.4458C42.3759 58.4458 41.2805 58.2698 40.4255 57.9179C39.5705 57.5659 38.8977 57.068 38.4046 56.4216C37.9132 55.7769 37.5674 54.991 37.3683 54.0633C37.1691 53.1371 37.0703 52.1096 37.0703 50.984V39.7916H42.0594V50.0684C42.0594 51.5703 42.2942 52.6911 42.7629 53.4299C43.2309 54.1687 44.0632 54.5385 45.2575 54.5385C46.616 54.5385 47.5998 54.1338 48.2094 53.3237C48.8175 52.5143 49.1227 51.1835 49.1227 49.3288V39.7908H54.1126V57.9876H49.3688L49.368 57.9884Z" fill="#EFEAE3"/>
<path d="M70.8026 55.6658C70.2164 56.6511 69.4488 57.3615 68.5007 57.7946C67.5526 58.2277 66.4799 58.4458 65.2856 58.4458C63.9262 58.4458 62.732 58.1823 61.7013 57.6543C60.6698 57.1264 59.8213 56.4103 59.1534 55.5068C58.4862 54.6034 57.9818 53.5661 57.6426 52.3918C57.3033 51.2192 57.1333 49.9994 57.1333 48.7319C57.1333 47.5114 57.3033 46.3322 57.6426 45.1944C57.9818 44.0566 58.4862 43.0526 59.1534 42.1848C59.8213 41.3171 60.6585 40.618 61.6657 40.0901C62.6721 39.5621 63.8445 39.2985 65.1804 39.2985C66.2572 39.2985 67.2822 39.5281 68.2546 39.9846C69.227 40.4412 69.9945 41.1168 70.5564 42.008H70.6261V32.8577H75.6159V57.9876H70.8722V55.665L70.8026 55.6658ZM70.5921 46.6728C70.4512 45.9802 70.2107 45.3704 69.8715 44.8424C69.5314 44.3145 69.0926 43.8871 68.5534 43.5586C68.0149 43.2302 67.3348 43.0647 66.5155 43.0647C65.6961 43.0647 65.0047 43.2302 64.442 43.5586C63.8809 43.8871 63.4291 44.3201 63.0891 44.8603C62.7498 45.4004 62.5037 46.0167 62.3515 46.7085C62.1993 47.4003 62.1223 48.1228 62.1223 48.873C62.1223 49.5769 62.2041 50.2809 62.3685 50.9848C62.5328 51.6887 62.7968 52.3164 63.1595 52.8679C63.523 53.4194 63.9789 53.8654 64.5302 54.2052C65.08 54.545 65.7415 54.7153 66.5147 54.7153C67.334 54.7153 68.0198 54.5523 68.5704 54.223C69.1201 53.8946 69.5598 53.455 69.8877 52.9036C70.2156 52.3529 70.4504 51.7244 70.5912 51.0205C70.7313 50.3157 70.8018 49.5891 70.8018 48.8381C70.8018 48.0872 70.7313 47.3662 70.5912 46.6736L70.5921 46.6728Z" fill="#EFEAE3"/>
<path d="M79.5161 36.9767V32.8586H84.506V36.9767H79.5161ZM84.506 39.7924V57.9892H79.5161V39.7924H84.506Z" fill="#EFEAE3"/>
<path d="M88.5461 44.9487C88.9914 43.7638 89.6229 42.755 90.4439 41.9213C91.2632 41.0884 92.2469 40.4437 93.395 39.9863C94.5431 39.5289 95.8313 39.3002 97.2611 39.3002C98.6909 39.3002 99.9831 39.5297 101.143 39.9863C102.304 40.4428 103.292 41.0892 104.112 41.9213C104.932 42.755 105.565 43.7638 106.01 44.9487C106.455 46.1335 106.677 47.453 106.677 48.9079C106.677 50.3628 106.455 51.6766 106.01 52.8501C105.565 54.0235 104.932 55.0259 104.112 55.8588C103.291 56.6925 102.304 57.3324 101.143 57.7776C99.9831 58.2228 98.6885 58.4458 97.2611 58.4458C95.8337 58.4458 94.5423 58.2228 93.395 57.7776C92.2478 57.3315 91.264 56.6917 90.4439 55.8588C89.6229 55.0259 88.9914 54.0235 88.5461 52.8501C88.1007 51.6766 87.8789 50.3628 87.8789 48.9079C87.8789 47.453 88.1007 46.1335 88.5461 44.9487ZM93.0793 51.0375C93.2193 51.7301 93.4598 52.3521 93.799 52.9028C94.1383 53.4542 94.5901 53.8938 95.1528 54.2222C95.7155 54.5515 96.4174 54.7145 97.2611 54.7145C98.1047 54.7145 98.8116 54.5515 99.3864 54.2222C99.9605 53.8938 100.417 53.4542 100.756 52.9028C101.096 52.3521 101.337 51.7293 101.477 51.0375C101.618 50.3466 101.687 49.6361 101.687 48.9087C101.687 48.1812 101.618 47.4651 101.477 46.7612C101.337 46.0573 101.096 45.4361 100.756 44.8959C100.417 44.3566 99.9605 43.9163 99.3864 43.5765C98.8116 43.2367 98.1031 43.0656 97.2611 43.0656C96.4191 43.0656 95.7147 43.2367 95.1528 43.5765C94.5909 43.9163 94.1383 44.3566 93.799 44.8959C93.4598 45.4361 93.2193 46.0581 93.0793 46.7612C92.9384 47.4651 92.8688 48.1812 92.8688 48.9087C92.8688 49.6361 92.9384 50.3466 93.0793 51.0375Z" fill="#EFEAE3"/>
</g>
<defs>
<clipPath id="clip0_622_71">
<rect width="150" height="68" fill="white"/>
</clipPath>
</defs>
</svg>
